<svg xmlns="http://www.w3.org/2000/svg" xmlns:xlink="http://www.w3.org/1999/xlink" version="1.1" x="0px" y="0px" viewBox="0 0 50.4 63" enable-background="new 0 0 50.4 50.4" xml:space="preserve"><g><path d="M43.985,3.623h-6.117c-1,0-1.809,0.81-1.809,1.809v18.059c0,0.999,0.809,1.809,1.809,1.809h6.117   c0.999,0,1.809-0.81,1.809-1.809V5.432C45.794,4.433,44.984,3.623,43.985,3.623z M41.932,11.085c0,0.551-0.446,0.998-0.997,0.998   c-0.552,0-0.999-0.447-0.999-0.998V7.822c0-0.551,0.447-0.998,0.999-0.998c0.551,0,0.997,0.447,0.997,0.998V11.085z"/><g><path d="M33.629,25.286v-23.4c0-0.71-0.668-1.878-2.021-1.878c-1.029,0-1.809,1.168-1.809,1.878v23.4H33.629z"/><path d="M8.885,27.344v0.009c0,0-1.273,0.078-1.998,0.682c-0.826,0.688-1.052,1.975-1.052,1.975s-0.275,1.095-0.275,2.482    c0,8.265,5.327,14.601,10.561,17.909h25.81l-0.004-23.048L8.885,27.344z"/></g></g><text x="0" y="65.4" fill="#000000" font-size="5px" font-weight="bold" font-family="'Helvetica Neue', Helvetica, Arial-Unicode, Arial, Sans-serif">Created by Luis Prado</text><text x="0" y="70.4" fill="#000000" font-size="5px" font-weight="bold" font-family="'Helvetica Neue', Helvetica, Arial-Unicode, Arial, Sans-serif">from the Noun Project</text></svg>